<svg width="79" height="31" viewBox="0 0 79 31" fill="none" xmlns="http://www.w3.org/2000/svg">
<g clip-path="url(#clip0_2_2)">
<path d="M18.9471 0.672365C15.901 0.672365 12.9797 1.88242 10.8258 4.03633L3.79633 11.0658C1.64242 13.2197 0.432373 16.141 0.432373 19.1871C0.432373 25.5303 5.57451 30.6724 11.9177 30.6724C14.9638 30.6724 17.8851 29.4623 20.039 27.3084L24.9013 22.4461V22.4461L39.0684 8.27896C40.0971 7.25028 41.4923 6.67237 42.9471 6.67237C45.3827 6.67237 47.4476 8.25978 48.1635 10.4564L52.6346 5.98533C50.5949 2.79071 47.0184 0.672365 42.9471 0.672365C39.901 0.672365 36.9797 1.88242 34.8258 4.03633L15.7964 23.0658C14.7677 24.0945 13.3725 24.6724 11.9177 24.6724C8.88821 24.6724 6.43237 22.2166 6.43237 19.1871C6.43237 17.7323 7.01028 16.3371 8.03897 15.3084L15.0684 8.27896C16.0971 7.25028 17.4923 6.67237 18.9471 6.67237C21.3828 6.67237 23.4476 8.25985 24.1635 10.4566L28.6347 5.98544C26.595 2.79077 23.0185 0.672365 18.9471 0.672365Z" fill="#F5F5F5"/>
<path d="M39.7964 23.0658C38.7677 24.0945 37.3725 24.6724 35.9177 24.6724C33.4824 24.6724 31.4177 23.0854 30.7016 20.8891L26.2306 25.3601C28.2704 28.5543 31.8467 30.6724 35.9177 30.6724C38.9638 30.6724 41.8851 29.4623 44.039 27.3084L63.0684 8.27896C64.0971 7.25028 65.4923 6.67237 66.9471 6.67237C69.9766 6.67237 72.4324 9.12821 72.4324 12.1577C72.4324 13.6125 71.8545 15.0077 70.8258 16.0364L63.7964 23.0658C62.7677 24.0945 61.3725 24.6724 59.9177 24.6724C57.4822 24.6724 55.4174 23.0851 54.7014 20.8886L50.2304 25.3597C52.2701 28.5542 55.8465 30.6724 59.9177 30.6724C62.9638 30.6724 65.8851 29.4623 68.039 27.3084L75.0684 20.279C77.2223 18.1251 78.4324 15.2038 78.4324 12.1577C78.4324 5.81451 73.2903 0.672365 66.9471 0.672365C63.901 0.672365 60.9797 1.88242 58.8258 4.03633L39.7964 23.0658Z" fill="#F5F5F5"/>
</g>
<defs>
<clipPath id="clip0_2_2">
<rect width="78" height="30" fill="white" transform="translate(0.432373 0.672365)"/>
</clipPath>
</defs>
</svg>
