<svg width="26" height="26" viewBox="0 0 26 26" fill="none" xmlns="http://www.w3.org/2000/svg">
<path d="M17.193 2.79053C20.7221 2.79053 23.094 5.26761 23.094 8.95407V17.4614C23.094 21.1478 20.7221 23.6239 17.1919 23.6239H8.16276C4.63256 23.6239 2.26068 21.1478 2.26068 17.4614V8.95407C2.26068 5.26761 4.63256 2.79053 8.16276 2.79053H17.193ZM9.38672 10.4978C7.89297 10.4978 6.67735 11.7134 6.67735 13.2072C6.67735 14.702 7.89297 15.9176 9.38672 15.9176C10.6076 15.9176 11.6305 15.1009 11.968 13.9884H14.168V15.1364C14.168 15.5676 14.518 15.9176 14.9492 15.9176C15.3805 15.9176 15.7305 15.5676 15.7305 15.1364V13.9884H17.1159V15.1364C17.1159 15.5676 17.4659 15.9176 17.8971 15.9176C18.3284 15.9176 18.6784 15.5676 18.6784 15.1364V13.2072C18.6784 12.7759 18.3284 12.4259 17.8971 12.4259H11.968C11.6305 11.3145 10.6076 10.4978 9.38672 10.4978ZM9.38683 12.0602C10.0191 12.0602 10.5347 12.5748 10.5347 13.2081C10.5347 13.8404 10.0191 14.355 9.38683 14.355C8.75454 14.355 8.23891 13.8404 8.23891 13.2081C8.23891 12.5748 8.75454 12.0602 9.38683 12.0602Z" fill="black"/>
</svg>
