<svg width="25" height="25" viewBox="0 0 25 25" fill="none" xmlns="http://www.w3.org/2000/svg">
<path opacity="0.4" d="M17.015 2.08313H7.98478C4.45457 2.08313 2.08374 4.56021 2.08374 8.24667V16.754C2.08374 20.4394 4.45457 22.9165 7.98478 22.9165H17.0139C20.5442 22.9165 22.9171 20.4394 22.9171 16.754V8.24667C22.9171 4.56021 20.5452 2.08313 17.015 2.08313Z" fill="black"/>
<path d="M9.21271 9.79016C10.4315 9.79016 11.4523 10.6027 11.7856 11.7172H17.7231C18.1502 11.7172 18.5044 12.0714 18.5044 12.4985V14.4256C18.5044 14.8631 18.1502 15.2068 17.7231 15.2068C17.2856 15.2068 16.9419 14.8631 16.9419 14.4256V13.2797H15.5565V14.4256C15.5565 14.8631 15.2023 15.2068 14.7752 15.2068C14.3377 15.2068 13.994 14.8631 13.994 14.4256V13.2797H11.7856C11.4523 14.3943 10.4315 15.2068 9.21271 15.2068C7.71271 15.2068 6.49396 13.9985 6.49396 12.4985C6.49396 11.0089 7.71271 9.79016 9.21271 9.79016ZM9.21271 11.3527C8.57729 11.3527 8.05646 11.8631 8.05646 12.4985C8.05646 13.1339 8.57729 13.6443 9.21271 13.6443C9.83771 13.6443 10.3585 13.1339 10.3585 12.4985C10.3585 11.8631 9.83771 11.3527 9.21271 11.3527Z" fill="black"/>
</svg>
