<svg width="100%" height="100%" id="svg" viewBox="0 0 1440 590" xmlns="http://www.w3.org/2000/svg" class="transition duration-300 ease-in-out delay-150"><path d="M 0,600 L 0,150 C 111.36842105263159,155.0334928229665 222.73684210526318,160.06698564593302 328,155 C 433.2631578947368,149.93301435406698 532.421052631579,134.76555023923441 624,116 C 715.578947368421,97.23444976076557 799.578947368421,74.8708133971292 873,90 C 946.421052631579,105.1291866028708 1009.2631578947369,157.75119617224883 1102,174 C 1194.7368421052631,190.24880382775117 1317.3684210526317,170.1244019138756 1440,150 L 1440,600 L 0,600 Z" stroke="none" stroke-width="0" fill="#0693e3" fill-opacity="0.53" class="transition-all duration-300 ease-in-out delay-150 path-0"></path><path d="M 0,600 L 0,350 C 109.6267942583732,327.0143540669857 219.2535885167464,304.0287081339713 306,304 C 392.7464114832536,303.9712918660287 456.6124401913876,326.89952153110045 543,357 C 629.3875598086124,387.10047846889955 738.2966507177034,424.3732057416268 835,415 C 931.7033492822966,405.6267942583732 1016.2009569377992,349.60765550239233 1115,331 C 1213.7990430622008,312.39234449760767 1326.8995215311004,331.1961722488038 1440,350 L 1440,600 L 0,600 Z" stroke="none" stroke-width="0" fill="#0693e3" fill-opacity="1" class="transition-all duration-300 ease-in-out delay-150 path-1"></path></svg>