<?xml version="1.0" standalone="no"?><svg xmlns="http://www.w3.org/2000/svg" viewBox="0 0 1440 320"><path fill="#0099ff" fill-opacity="1" d="M0,96L18.5,101.3C36.9,107,74,117,111,133.3C147.7,149,185,171,222,165.3C258.5,160,295,128,332,101.3C369.2,75,406,53,443,64C480,75,517,117,554,133.3C590.8,149,628,139,665,165.3C701.5,192,738,256,775,256C812.3,256,849,192,886,176C923.1,160,960,192,997,208C1033.8,224,1071,224,1108,192C1144.6,160,1182,96,1218,106.7C1255.4,117,1292,203,1329,224C1366.2,245,1403,203,1422,181.3L1440,160L1440,320L1421.5,320C1403.1,320,1366,320,1329,320C1292.3,320,1255,320,1218,320C1181.5,320,1145,320,1108,320C1070.8,320,1034,320,997,320C960,320,923,320,886,320C849.2,320,812,320,775,320C738.5,320,702,320,665,320C627.7,320,591,320,554,320C516.9,320,480,320,443,320C406.2,320,369,320,332,320C295.4,320,258,320,222,320C184.6,320,148,320,111,320C73.8,320,37,320,18,320L0,320Z"></path></svg>