<?xml version="1.0" standalone="no"?><svg xmlns="http://www.w3.org/2000/svg" viewBox="0 0 1440 320"><path fill="#DACC3E" fill-opacity="1" d="M0,0L20,48C40,96,80,192,120,208C160,224,200,160,240,117.3C280,75,320,53,360,74.7C400,96,440,160,480,186.7C520,213,560,203,600,176C640,149,680,107,720,122.7C760,139,800,213,840,245.3C880,277,920,267,960,261.3C1000,256,1040,256,1080,240C1120,224,1160,192,1200,165.3C1240,139,1280,117,1320,117.3C1360,117,1400,139,1420,149.3L1440,160L1440,0L1420,0C1400,0,1360,0,1320,0C1280,0,1240,0,1200,0C1160,0,1120,0,1080,0C1040,0,1000,0,960,0C920,0,880,0,840,0C800,0,760,0,720,0C680,0,640,0,600,0C560,0,520,0,480,0C440,0,400,0,360,0C320,0,280,0,240,0C200,0,160,0,120,0C80,0,40,0,20,0L0,0Z"></path></svg>